<?xml version="1.0" encoding="UTF-8"?>
<svg version="1.1" xmlns="http://www.w3.org/2000/svg" width="256" height="256">
<path d="M0 0 C84.48 0 168.96 0 256 0 C256 84.48 256 168.96 256 256 C171.52 256 87.04 256 0 256 C0 171.52 0 87.04 0 0 Z " fill="#FF2D20" transform="translate(0,0)"/>
<path d="M0 0 C1.91906363 0.97120239 3.81119266 1.99631449 5.68359375 3.0546875 C6.77607422 3.66957031 7.86855469 4.28445312 8.99414062 4.91796875 C10.13044922 5.56378906 11.26675781 6.20960937 12.4375 6.875 C13.56994141 7.51308594 14.70238281 8.15117188 15.86914062 8.80859375 C18.91823069 10.52988325 21.96480177 12.25433082 25 14 C26.30653534 14.59149086 26.30653534 14.59149086 27.63946533 15.19493103 C30 17 30 17 30.60127258 19.90434265 C30.59016953 21.08792862 30.57906647 22.27151459 30.56762695 23.4909668 C30.56835709 24.1448941 30.56908722 24.79882141 30.56983948 25.4725647 C30.56635811 27.63229579 30.52747859 29.789865 30.48828125 31.94921875 C30.47895489 33.44707562 30.47183794 34.94494774 30.46684265 36.44282532 C30.44775833 40.38386196 30.39864687 44.32397611 30.34332275 48.26464844 C30.29216017 52.28633138 30.26933511 56.3081635 30.24414062 60.33007812 C30.19052804 68.22047527 30.10519963 76.11012286 30 84 C33.605416 82.04396027 37.20911362 80.08477579 40.8125 78.125 C41.83666016 77.56941406 42.86082031 77.01382813 43.91601562 76.44140625 C44.89892578 75.90644531 45.88183594 75.37148437 46.89453125 74.8203125 C47.80050049 74.32805176 48.70646973 73.83579102 49.63989258 73.32861328 C51.47262618 72.29688304 53.25004576 71.16663616 55 70 C55.17747924 67.39914332 55.1766829 65.01974089 55.0546875 62.4296875 C55.02821131 60.87765303 55.00487639 59.32556239 54.984375 57.7734375 C54.93932944 55.32824693 54.87573246 52.89004866 54.75683594 50.44726562 C54.26844463 39.63225816 54.26844463 39.63225816 56 35 C59.80385456 31.0975375 64.06203743 29.18349992 69 27 C70.76819475 25.94394717 72.52044044 24.8603932 74.25 23.7421875 C75.83245078 22.78499776 77.41576394 21.82923204 79 20.875 C79.80566406 20.3696875 80.61132812 19.864375 81.44140625 19.34375 C82.22386719 18.87710938 83.00632812 18.41046875 83.8125 17.9296875 C84.49957031 17.50929199 85.18664062 17.08889648 85.89453125 16.65576172 C89.69759813 15.4712722 92.44745547 17.71088403 95.79907227 19.46459961 C97.29265259 20.30003296 97.29265259 20.30003296 98.81640625 21.15234375 C99.91017578 21.76400391 101.00394531 22.37566406 102.13085938 23.00585938 C103.26330078 23.64330078 104.39574219 24.28074219 105.5625 24.9375 C106.69880859 25.57107422 107.83511719 26.20464844 109.00585938 26.85742188 C115.32564262 30.40321177 115.32564262 30.40321177 118 32 C118.7626416 32.38961914 119.5252832 32.77923828 120.31103516 33.18066406 C123.04049171 36.12080721 122.67069962 39.57913164 122.70703125 43.39453125 C122.72271652 44.21950607 122.73840179 45.0444809 122.75456238 45.89445496 C122.7791897 47.64021131 122.79276927 49.38615328 122.79614258 51.13208008 C122.81239319 53.79499728 122.89778859 56.44996279 122.98632812 59.11132812 C123.19110478 71.38347667 123.19110478 71.38347667 120.26855469 75.34985352 C117.90927096 76.95271189 115.6552936 77.96877629 113 79 C111.41795264 79.89226627 109.84731944 80.80508875 108.2890625 81.73828125 C106.73658039 82.6003379 105.18188889 83.45842779 103.625 84.3125 C102.83222656 84.75400391 102.03945312 85.19550781 101.22265625 85.65039062 C98.15206867 87.34674738 95.33703456 88.88765515 92 90 C92.04713135 91.02883301 92.0942627 92.05766602 92.14282227 93.11767578 C92.30631263 96.95240187 92.40923982 100.78682436 92.49438477 104.62402344 C92.53951672 106.28112654 92.60084462 107.93787369 92.67895508 109.59375 C93.30425595 123.19506573 93.30425595 123.19506573 90.41577148 127.19238281 C88.02854284 128.8208206 85.66408719 129.88183317 83 131 C80.93522607 132.17817852 78.88251187 133.37764845 76.83984375 134.59375 C74.54090291 135.89924733 72.24040461 137.20155127 69.9375 138.5 C67.45325079 139.90418049 64.97026581 141.31057055 62.48828125 142.71875 C61.55251251 143.24940063 61.55251251 143.24940063 60.59783936 143.79077148 C56.37895771 146.1918788 52.20348145 148.65529776 48.04296875 151.15625 C46.95959229 151.80400391 45.87621582 152.45175781 44.76000977 153.11914062 C42.71373076 154.34681241 40.67351637 155.58466626 38.64038086 156.83398438 C37.7200708 157.38376953 36.79976074 157.93355469 35.8515625 158.5 C35.05572754 158.9846875 34.25989258 159.469375 33.43994141 159.96875 C29.87289514 161.47637492 26.71263201 161.61027772 23.04736328 160.30419922 C22.19247314 159.80944092 22.19247314 159.80944092 21.3203125 159.3046875 C20.31689819 158.73633179 20.31689819 158.73633179 19.29321289 158.15649414 C18.57770264 157.73360107 17.86219238 157.31070801 17.125 156.875 C16.35470459 156.43341553 15.58440918 155.99183105 14.79077148 155.53686523 C12.18576028 154.03811631 9.59279 152.51978313 7 151 C5.0511361 149.86787852 3.10190575 148.73638766 1.15234375 147.60546875 C-9.64272903 141.33230714 -9.64272903 141.33230714 -13.32929993 139.05209351 C-16.0423758 137.44781653 -18.78524761 136.25017704 -21.71199036 135.08502197 C-34.36737133 129.63079166 -34.36737133 129.63079166 -37.0914135 123.57281303 C-38.82372085 116.32395829 -38.40818582 108.90671042 -38.171875 101.51171875 C-38.15926415 99.12045416 -38.15378375 96.72914234 -38.15509033 94.33784485 C-38.13802653 89.34155351 -38.05774925 84.35178312 -37.92773438 79.35717773 C-37.76305578 72.95889379 -37.7220111 66.56738606 -37.72361374 60.16720867 C-37.71727981 55.23634145 -37.66358749 50.30693894 -37.59372711 45.37659645 C-37.56261472 43.01762134 -37.5420583 40.65848226 -37.53231049 38.29932213 C-37.50804732 35.0036101 -37.4244052 31.71478896 -37.32324219 28.4206543 C-37.32574982 27.44962769 -37.32825745 26.47860107 -37.33084106 25.47814941 C-37.15202387 21.43274378 -37.01426955 18.97648532 -34.01701069 16.0908823 C-31.73497129 14.55172279 -29.45133112 13.24746466 -27 12 C-25.98703857 11.37617432 -24.97407715 10.75234863 -23.93041992 10.10961914 C-21.02333612 8.4143679 -18.10833058 6.73395796 -15.1875 5.0625 C-14.16462891 4.46115234 -13.14175781 3.85980469 -12.08789062 3.24023438 C-11.10369141 2.67755859 -10.11949219 2.11488281 -9.10546875 1.53515625 C-8.22012451 1.023479 -7.33478027 0.51180176 -6.42260742 -0.01538086 C-3.58995487 -1.16665444 -2.78259738 -1.16075015 0 0 Z " fill="#FFF4F3" transform="translate(86,48)"/>
<path d="M0 0 C9.13919604 3.65567842 17.45369576 9.11639757 26 14 C26 37.43 26 60.86 26 85 C27.65 85.66 29.3 86.32 31 87 C33.00114984 88.05715327 34.98581364 89.14584359 36.95703125 90.2578125 C37.95968018 90.82129395 38.9623291 91.38477539 39.99536133 91.96533203 C41.88484497 93.03436768 41.88484497 93.03436768 43.8125 94.125 C47.834375 96.39375 51.85625 98.6625 56 101 C56 110.57 56 120.14 56 130 C51.71543596 128.57181199 48.8089992 127.48701477 45.078125 125.26953125 C44.13195312 124.71201172 43.18578125 124.15449219 42.2109375 123.58007812 C41.23382813 122.99677734 40.25671875 122.41347656 39.25 121.8125 C26.22795925 114.09815351 13.1133166 106.56537496 0 99 C0 66.33 0 33.66 0 0 Z " fill="#FF3023" transform="translate(55,72)"/>
<path d="M0 0 C2.64335081 24.52933868 2.64335081 24.52933868 -1.24951172 31.11328125 C-4.90350286 34.51971202 -9.53871304 36.07531979 -14.15283203 37.80615234 C-19.83592396 40.18913292 -25.02601859 43.54260854 -30.3125 46.6875 C-32.45245909 47.92398516 -34.59434514 49.15714224 -36.73828125 50.38671875 C-42.08752685 53.46465436 -47.41034478 56.58585104 -52.72338867 59.72583008 C-55 61 -55 61 -56 61 C-56.22363929 56.98060937 -56.38628486 52.96365228 -56.49438477 48.93945312 C-56.53946167 47.57325144 -56.6007517 46.2074797 -56.67895508 44.84277344 C-57.30383024 33.65219863 -57.30383024 33.65219863 -54.40917969 29.98413086 C-52.02496565 28.35212492 -49.63219139 27.1910995 -47 26 C-44.95465487 24.85095619 -42.91594388 23.69005045 -40.8828125 22.51953125 C-38.63210698 21.28039927 -36.37942816 20.04484616 -34.125 18.8125 C-31.73291851 17.49742611 -29.34270833 16.17898202 -26.953125 14.859375 C-26.36284515 14.53365005 -25.77256531 14.20792511 -25.16439819 13.87232971 C-18.87773668 10.39456157 -12.6654651 6.79216269 -6.47314453 3.1496582 C-1.09845401 0 -1.09845401 0 0 0 Z " fill="#FF2F23" transform="translate(172,142)"/>
<path d="M0 0 C2.49536133 1.21508789 2.49536133 1.21508789 5.08203125 2.72265625 C6.01337891 3.26083984 6.94472656 3.79902344 7.90429688 4.35351562 C8.86400391 4.91748047 9.82371094 5.48144531 10.8125 6.0625 C11.79154297 6.63033203 12.77058594 7.19816406 13.77929688 7.78320312 C16.18993348 9.18254827 18.5965851 10.58829929 21 12 C21 12.66 21 13.32 21 14 C20.2879541 14.40613525 19.5759082 14.81227051 18.84228516 15.23071289 C16.6818152 16.46331749 14.52169314 17.69653198 12.36181641 18.93017578 C9.85292687 20.36281933 7.34193909 21.79169497 4.82958984 23.21826172 C-1.63863691 26.89707143 -8.06946858 30.62273344 -14.4375 34.47265625 C-15.61633843 35.17825611 -16.79553115 35.88326445 -17.97509766 36.58764648 C-20.20870938 37.92611337 -22.43276842 39.28067747 -24.64599609 40.65258789 C-26.16314209 41.55545532 -26.16314209 41.55545532 -27.7109375 42.4765625 C-29.03037354 43.282146 -29.03037354 43.282146 -30.37646484 44.10400391 C-33.94404539 45.32241267 -35.60440049 44.50772563 -39 43 C-40.5933165 42.20309958 -42.16411292 41.35931767 -43.70703125 40.46875 C-44.54041016 39.98792969 -45.37378906 39.50710937 -46.23242188 39.01171875 C-47.08384766 38.51285156 -47.93527344 38.01398438 -48.8125 37.5 C-49.68326172 37.00113281 -50.55402344 36.50226563 -51.45117188 35.98828125 C-57.87278073 32.25443853 -57.87278073 32.25443853 -59 30 C-57.40885417 29.08203125 -55.81770833 28.1640625 -54.2265625 27.24609375 C-53.18564453 26.64555176 -52.14472656 26.04500977 -51.07226562 25.42626953 C-48.7559026 24.08993149 -46.43950318 22.75365677 -44.12304688 21.41748047 C-38.54502593 18.19985152 -32.96733619 14.9816557 -27.39144897 11.7603302 C-25.00223992 10.38006547 -22.6127925 9.00021367 -20.22332764 7.62039185 C-18.51665366 6.63461913 -16.81032703 5.64824512 -15.10400391 4.66186523 C-14.06937012 4.06446533 -13.03473633 3.46706543 -11.96875 2.8515625 C-10.59879883 2.05999756 -10.59879883 2.05999756 -9.20117188 1.25244141 C-5.47428783 -0.86811263 -4.19944916 -1.14267358 0 0 Z " fill="#FF2F22" transform="translate(148,124)"/>
<path d="M0 0 C0.56016082 8.10063247 0.9842521 16.19302712 1.24349213 24.308321 C1.36806053 28.07926341 1.53607742 31.83685765 1.81054688 35.60009766 C3.53903187 59.90848594 3.53903187 59.90848594 -2.41699219 66.79431152 C-7.95900836 71.20341066 -17.55265857 78 -25 78 C-25.39565726 69.82920523 -25.69673896 61.66246287 -25.88080692 53.48443031 C-25.9692101 49.68554025 -26.08876385 45.89323857 -26.2824707 42.09814453 C-27.50042141 17.60836137 -27.50042141 17.60836137 -23.38934326 11.67565918 C-19.47840586 8.15046492 -15.13238962 6.29246341 -10.15036011 4.74188232 C-7.08875713 3.68561778 -3.01814326 0 0 0 Z " fill="#FF2D20" transform="translate(111,72)"/>
<path d="M0 0 C0.81597656 0.44279297 1.63195312 0.88558594 2.47265625 1.34179688 C3.29612549 1.78023926 4.11959473 2.21868164 4.96801758 2.67041016 C5.82161865 3.1626709 6.67521973 3.65493164 7.5546875 4.16210938 C8.48603516 4.69707031 9.41738281 5.23203125 10.37695312 5.78320312 C11.33666016 6.33878906 12.29636719 6.894375 13.28515625 7.46679688 C14.26419922 8.03011719 15.24324219 8.5934375 16.25195312 9.17382812 C18.6605518 10.56024102 21.0673702 11.94964743 23.47265625 13.34179688 C19.71660069 17.42585243 14.90546244 19.87412088 10.16015625 22.65429688 C8.7534668 23.51764648 8.7534668 23.51764648 7.31835938 24.3984375 C0.40852089 28.43526351 0.40852089 28.43526351 -3.578125 28.03710938 C-4.55136719 27.47765625 -5.52460938 26.91820313 -6.52734375 26.34179688 C-7.26476807 25.95564209 -8.00219238 25.5694873 -8.76196289 25.17163086 C-11.34472351 23.80594369 -13.87249481 22.36543704 -16.40234375 20.90429688 C-17.28148437 20.41380859 -18.160625 19.92332031 -19.06640625 19.41796875 C-19.8965625 18.94037109 -20.72671875 18.46277344 -21.58203125 17.97070312 C-22.33983887 17.53830322 -23.09764648 17.10590332 -23.87841797 16.66040039 C-24.69463623 16.00769165 -24.69463623 16.00769165 -25.52734375 15.34179688 C-25.52734375 14.35179688 -25.52734375 13.36179687 -25.52734375 12.34179688 C-21.81525555 10.10375067 -18.08042041 7.90684056 -14.33984375 5.71679688 C-13.28474609 5.08 -12.22964844 4.44320312 -11.14257812 3.78710938 C-10.12099609 3.19414063 -9.09941406 2.60117188 -8.046875 1.99023438 C-7.10948486 1.43513184 -6.17209473 0.8800293 -5.20629883 0.30810547 C-2.52734375 -0.65820312 -2.52734375 -0.65820312 0 0 Z " fill="#FF3024" transform="translate(176.52734375,70.658203125)"/>
<path d="M0 0 C3.64739801 1.82426356 7.15406348 3.90252419 10.6875 5.9375 C11.66267578 6.48857422 12.63785156 7.03964844 13.64257812 7.60742188 C15.03186523 8.4030957 15.03186523 8.4030957 16.44921875 9.21484375 C17.29830811 9.70073975 18.14739746 10.18663574 19.0222168 10.68725586 C21 12 21 12 22 14 C18.12180337 16.40475832 14.22007596 18.76833443 10.3125 21.125 C9.20970703 21.80949219 8.10691406 22.49398437 6.97070312 23.19921875 C5.90400391 23.83730469 4.83730469 24.47539063 3.73828125 25.1328125 C2.75899658 25.72980957 1.77971191 26.32680664 0.77075195 26.94189453 C-2 28 -2 28 -4.54101562 27.35546875 C-5.35248047 26.90816406 -6.16394531 26.46085937 -7 26 C-7.82346924 25.56155762 -8.64693848 25.12311523 -9.49536133 24.67138672 C-10.3489624 24.17912598 -11.20256348 23.68686523 -12.08203125 23.1796875 C-13.01337891 22.64472656 -13.94472656 22.10976562 -14.90429688 21.55859375 C-15.86400391 21.00300781 -16.82371094 20.44742188 -17.8125 19.875 C-18.79154297 19.31167969 -19.77058594 18.74835938 -20.77929688 18.16796875 C-23.18789555 16.78155585 -25.59471395 15.39214945 -28 14 C-24.23851744 9.88823939 -19.34562582 7.50343356 -14.5625 4.75 C-13.60794922 4.1828125 -12.65339844 3.615625 -11.66992188 3.03125 C-10.74888672 2.50015625 -9.82785156 1.9690625 -8.87890625 1.421875 C-8.0391626 0.93299805 -7.19941895 0.44412109 -6.33422852 -0.05957031 C-3.58069531 -1.16893229 -2.71319378 -1.10609739 0 0 Z " fill="#FF3024" transform="translate(86,54)"/>
<path d="M0 0 C2.05113457 25.20589518 2.05113457 25.20589518 -1.11474609 31.06201172 C-4.39975222 34.36049479 -8.67541886 35.58701804 -13 37 C-14.92488833 38.11807873 -16.82489308 39.28098786 -18.6875 40.5 C-22.75 43 -22.75 43 -25 43 C-26.47138742 33.57368852 -27.97831272 23.23032924 -25 14 C-20.02894569 8.16152732 -8.07947622 0 0 0 Z " fill="#FF2F22" transform="translate(203,89)"/>
<path d="M0 0 C2.29354134 1.20487372 4.58478598 2.41382913 6.875 3.625 C7.50664062 3.95628906 8.13828125 4.28757812 8.7890625 4.62890625 C10.12667013 5.3378383 11.45369844 6.06699517 12.77099609 6.81298828 C15.03999134 8.07272098 15.03999134 8.07272098 17.71728516 9.08935547 C20.71668486 10.45678366 22.7373488 11.58928847 25 14 C26.23504463 18.97589982 25.94796421 23.8026338 25.625 28.875 C25.57478889 30.24462949 25.52917008 31.61443551 25.48828125 32.984375 C25.37056838 36.3274205 25.20639699 39.6614493 25 43 C21.61636394 41.71563748 18.51797586 40.25238128 15.390625 38.43359375 C14.55402344 37.94826172 13.71742188 37.46292969 12.85546875 36.96289062 C11.99566406 36.45951172 11.13585937 35.95613281 10.25 35.4375 C9.37472656 34.93025391 8.49945313 34.42300781 7.59765625 33.90039062 C1.14223388 30.14223388 1.14223388 30.14223388 0 29 C-0.08775605 26.85441173 -0.10695219 24.70595579 -0.09765625 22.55859375 C-0.09443359 21.25341797 -0.09121094 19.94824219 -0.08789062 18.60351562 C-0.07953401 17.2148431 -0.07106905 15.82617123 -0.0625 14.4375 C-0.05748666 13.04492344 -0.05292347 11.65234519 -0.04882812 10.25976562 C-0.03699434 6.8398013 -0.0205088 3.41992156 0 0 Z " fill="#FF2F22" transform="translate(147,89)"/>
</svg>
